<svg xmlns="http://www.w3.org/2000/svg" viewBox="0 0 640 480"><circle cx="320" cy="240" r="220" fill="#4a90e2"/><path fill="#3c8040" d="M210 130c30-10 70-20 110-15 10 40-20 60-40 70-30 15-20 45 0 55 25 13 40 0 60 10 15 8 5 30-5 45-15 22-45 30-70 15-30-18-20-55-55-50-25 4-30-40-20-60 5-15 10-65 20-70z"/><path fill="#3c8040" d="M430 180c25 5 55 30 60 55 3 20-10 40-30 45-30 8-20 40-35 55-20 20-55 20-65-5-8-20 10-30 20-45 10-20-5-45 15-65 10-10 20-40 35-40z"/><g fill="none" stroke="#fff" stroke-width="2" opacity=".5"><ellipse cx="320" cy="240" rx="220" ry="60"/><ellipse cx="320" cy="240" rx="220" ry="120"/><ellipse cx="320" cy="240" rx="220" ry="180"/><path d="M320 20v440M100 240h440"/></g><circle cx="320" cy="240" r="220" fill="none" stroke="#1f5aa3" stroke-width="6"/></svg>
